# Blender 4.0.1
# www.blender.org
o Headdress
v 0.000000 2.000000 -1.300000
v 0.000000 1.931852 -1.817638
v 0.000000 1.732051 -2.300000
v 0.000000 1.414213 -2.714214
v 0.000001 1.000000 -3.032051
v 0.000001 0.517638 -3.231852
v 0.000000 0.000000 -3.300000
v 0.000001 -0.517638 -3.231852
v 0.000001 -1.000000 -3.032051
v 0.000000 -1.414213 -2.714214
v 0.000000 -1.732051 -2.300000
v 0.000000 -1.931852 -1.817638
v 0.000000 -2.000000 -1.300000
v 0.000000 -1.931852 -0.782362
v 0.000000 -1.732051 -0.300000
v 0.000000 -1.414213 0.114213
v 0.000000 -1.000000 0.432050
v 0.000000 -0.517638 0.631851
v 0.000000 0.000000 0.700000
v 0.000000 0.517638 0.631851
v 0.000000 1.000000 0.432050
v 0.000000 1.414213 0.114213
v 0.000000 1.732051 -0.300000
v 0.000000 1.931852 -0.782362
v 8.353680 2.000000 -1.300000
v 8.353680 1.931852 -1.817638
v 8.353680 1.732051 -2.300000
v 8.353680 1.414213 -2.714213
v 8.353680 1.000000 -3.032051
v 8.353680 0.517638 -3.231852
v 8.353680 0.000000 -3.300000
v 8.353680 -0.517638 -3.231852
v 8.353680 -1.000000 -3.032051
v 8.353680 -1.414213 -2.714213
v 8.353680 -1.732051 -2.300000
v 8.353680 -1.931852 -1.817638
v 8.353680 -2.000000 -1.300000
v 8.353680 -1.931852 -0.782362
v 8.353680 -1.732051 -0.300000
v 8.353680 -1.414213 0.114213
v 8.353680 -1.000000 0.432051
v 8.353680 -0.517638 0.631851
v 8.353680 0.000000 0.700000
v 8.353680 0.517638 0.631851
v 8.353680 1.000000 0.432051
v 8.353680 1.414213 0.114213
v 8.353680 1.732051 -0.300000
v 8.353680 1.931852 -0.782362
v -8.353680 2.000000 -1.300001
v -8.353680 1.931852 -1.817639
v -8.353680 1.732051 -2.300001
v -8.353680 1.414213 -2.714214
v -8.353680 1.000000 -3.032052
v -8.353680 0.517638 -3.231853
v -8.353680 0.000000 -3.300000
v -8.353680 -0.517638 -3.231853
v -8.353680 -1.000000 -3.032052
v -8.353680 -1.414213 -2.714214
v -8.353680 -1.732051 -2.300001
v -8.353680 -1.931852 -1.817639
v -8.353680 -2.000000 -1.300001
v -8.353680 -1.931852 -0.782363
v -8.353680 -1.732051 -0.300001
v -8.353680 -1.414213 0.114213
v -8.353680 -1.000000 0.432050
v -8.353680 -0.517638 0.631851
v -8.353680 0.000000 0.699999
v -8.353680 0.517638 0.631851
v -8.353680 1.000000 0.432050
v -8.353680 1.414213 0.114213
v -8.353680 1.732051 -0.300001
v -8.353680 1.931852 -0.782363
vn -0.0000 -0.2588 0.9659
vn -0.0000 -0.5000 0.8660
vn -0.0000 -0.8660 -0.5000
vn -0.0000 -0.7071 -0.7071
vn -0.0000 0.7071 -0.7071
vn -0.0000 0.8660 -0.5000
vn -0.0000 -0.0000 1.0000
vn -0.0000 -0.9659 -0.2588
vn -0.0000 0.5000 -0.8660
vn -0.0000 0.2588 0.9659
vn -0.0000 -1.0000 -0.0000
vn -0.0000 0.2588 -0.9659
vn -0.0000 0.5000 0.8660
vn -0.0000 -0.9659 0.2588
vn -0.0000 -0.0000 -1.0000
vn -0.0000 0.7071 0.7071
vn -0.0000 -0.8660 0.5000
vn -0.0000 -0.2588 -0.9659
vn -0.0000 0.8660 0.5000
vn -0.0000 -0.7071 0.7071
vn -0.0000 -0.5000 -0.8660
vn -0.0000 0.9659 0.2588
vn -0.0000 0.9659 -0.2588
vn -0.0000 1.0000 -0.0000
vt 0.000000 0.250000
vt 0.000000 0.000000
vt 1.000000 0.000000
vt 1.000000 0.250000
vt 0.000000 0.500000
vt 1.000000 0.500000
vt 0.000000 0.750000
vt 1.000000 0.750000
vt 0.000000 1.000000
vt 1.000000 1.000000
vt 0.000000 1.000000
s 1
f 18/1/1 17/2/2 41/3/2 42/4/1
f 11/5/3 10/1/4 34/4/4 35/6/3
f 4/7/5 3/5/6 27/6/6 28/8/5
f 19/5/7 18/1/1 42/4/1 43/6/7
f 12/7/8 11/5/3 35/6/3 36/8/8
f 5/9/9 4/7/5 28/8/5 29/10/9
f 20/7/10 19/5/7 43/6/7 44/8/10
f 13/9/11 12/7/8 36/8/8 37/10/11
f 6/7/12 5/9/9 29/10/9 30/8/12
f 21/9/13 20/7/10 44/8/10 45/10/13
f 14/7/14 13/11/11 37/10/11 38/8/14
f 7/5/15 6/7/12 30/8/12 31/6/15
f 22/7/16 21/9/13 45/10/13 46/8/16
f 15/5/17 14/7/14 38/8/14 39/6/17
f 8/1/18 7/5/15 31/6/15 32/4/18
f 23/5/19 22/7/16 46/8/16 47/6/19
f 16/1/20 15/5/17 39/6/17 40/4/20
f 9/2/21 8/1/18 32/4/18 33/3/21
f 24/1/22 23/5/19 47/6/19 48/4/22
f 2/1/23 1/2/24 25/3/24 26/4/23
f 17/2/2 16/1/20 40/4/20 41/3/2
f 10/1/4 9/2/21 33/3/21 34/4/4
f 1/2/24 24/1/22 48/4/22 25/3/24
f 3/5/6 2/1/23 26/4/23 27/6/6
f 18/1/1 66/4/1 65/3/2 17/2/2
f 11/5/3 59/6/3 58/4/4 10/1/4
f 4/7/5 52/8/5 51/6/6 3/5/6
f 19/5/7 67/6/7 66/4/1 18/1/1
f 12/7/8 60/8/8 59/6/3 11/5/3
f 5/9/9 53/10/9 52/8/5 4/7/5
f 20/7/10 68/8/10 67/6/7 19/5/7
f 13/9/11 61/10/11 60/8/8 12/7/8
f 6/7/12 54/8/12 53/10/9 5/9/9
f 21/9/13 69/10/13 68/8/10 20/7/10
f 14/7/14 62/8/14 61/10/11 13/11/11
f 7/5/15 55/6/15 54/8/12 6/7/12
f 22/7/16 70/8/16 69/10/13 21/9/13
f 15/5/17 63/6/17 62/8/14 14/7/14
f 8/1/18 56/4/18 55/6/15 7/5/15
f 23/5/19 71/6/19 70/8/16 22/7/16
f 16/1/20 64/4/20 63/6/17 15/5/17
f 9/2/21 57/3/21 56/4/18 8/1/18
f 24/1/22 72/4/22 71/6/19 23/5/19
f 2/1/23 50/4/23 49/3/24 1/2/24
f 17/2/2 65/3/2 64/4/20 16/1/20
f 10/1/4 58/4/4 57/3/21 9/2/21
f 1/2/24 49/3/24 72/4/22 24/1/22
f 3/5/6 51/6/6 50/4/23 2/1/23
