# Blender 4.0.1
# www.blender.org
o Headdress_Side
v 8.353680 0.000000 -1.299999
v 8.353680 2.000000 -1.299999
v 8.353680 1.931852 -0.782361
v 8.353680 1.732051 -0.299999
v 8.353680 1.414214 0.114214
v 8.353680 1.000000 0.432052
v 8.353680 0.517638 0.631852
v 8.353680 0.000000 0.700002
v 8.353680 -0.517638 0.631852
v 8.353680 -1.000000 0.432052
v 8.353680 -1.414213 0.114215
v 8.353680 -1.732050 -0.299999
v 8.353680 -1.931852 -0.782361
v 8.353680 -2.000000 -1.299999
v 8.353680 -1.931852 -1.817637
v 8.353680 -1.732051 -2.299999
v 8.353680 -1.414214 -2.714212
v 8.353680 -1.000000 -3.032050
v 8.353680 -0.517638 -3.231851
v 8.353680 -0.000000 -3.299999
v 8.353680 0.517638 -3.231851
v 8.353680 1.000000 -3.032050
v 8.353680 1.414213 -2.714213
v 8.353680 1.732050 -2.299999
v 8.353680 1.931852 -1.817637
v -8.353680 0.000000 -1.300000
v -8.353680 2.000000 -1.300000
v -8.353680 1.931852 -1.817638
v -8.353680 1.732050 -2.300000
v -8.353680 1.414213 -2.714213
v -8.353680 1.000000 -3.032051
v -8.353680 0.517638 -3.231852
v -8.353680 -0.000000 -3.300000
v -8.353680 -0.517638 -3.231852
v -8.353680 -1.000000 -3.032050
v -8.353680 -1.414214 -2.714213
v -8.353680 -1.732051 -2.300000
v -8.353680 -1.931852 -1.817637
v -8.353680 -2.000000 -1.300000
v -8.353680 -1.931852 -0.782361
v -8.353680 -1.732050 -0.300000
v -8.353680 -1.414213 0.114214
v -8.353680 -1.000000 0.432051
v -8.353680 -0.517638 0.631852
v -8.353680 0.000000 0.700000
v -8.353680 0.517638 0.631852
v -8.353680 1.000000 0.432051
v -8.353680 1.414214 0.114213
v -8.353680 1.732051 -0.300000
v -8.353680 1.931852 -0.782362
vn 1.0000 -0.0000 -0.0000
vn -1.0000 -0.0000 -0.0000
vt 0.250000 0.500000
vt 0.250000 1.000000
vt 0.185547 0.984375
vt 0.125000 0.933594
vt 0.072266 0.855469
vt 0.033203 0.750000
vt 0.007812 0.628906
vt 0.000000 0.500000
vt 0.007812 0.371094
vt 0.033203 0.250000
vt 0.072266 0.144531
vt 0.125000 0.066406
vt 0.185547 0.015625
vt 0.250000 0.000000
vt 0.314453 0.015625
vt 0.375000 0.066406
vt 0.427734 0.144531
vt 0.466797 0.250000
vt 0.492188 0.371094
vt 0.500000 0.500000
vt 0.492188 0.628906
vt 0.466797 0.750000
vt 0.427734 0.855469
vt 0.375000 0.933594
vt 0.314453 0.984375
vt 0.750000 0.500000
vt 0.750000 1.000000
vt 0.685547 0.984375
vt 0.625000 0.933594
vt 0.572266 0.855469
vt 0.533203 0.750000
vt 0.507812 0.628906
vt 0.507812 0.371094
vt 0.533203 0.250000
vt 0.572266 0.144531
vt 0.625000 0.066406
vt 0.685547 0.015625
vt 0.750000 0.000000
vt 0.814453 0.015625
vt 0.875000 0.066406
vt 0.927734 0.144531
vt 0.966797 0.250000
vt 0.992188 0.371094
vt 1.000000 0.500000
vt 0.992188 0.628906
vt 0.966797 0.750000
vt 0.927734 0.855469
vt 0.875000 0.933594
vt 0.814453 0.984375
s 0
f 1/1/1 2/2/1 3/3/1
f 1/1/1 3/3/1 4/4/1
f 1/1/1 4/4/1 5/5/1
f 1/1/1 5/5/1 6/6/1
f 1/1/1 6/6/1 7/7/1
f 1/1/1 7/7/1 8/8/1
f 1/1/1 8/8/1 9/9/1
f 1/1/1 9/9/1 10/10/1
f 1/1/1 10/10/1 11/11/1
f 1/1/1 11/11/1 12/12/1
f 1/1/1 12/12/1 13/13/1
f 1/1/1 13/13/1 14/14/1
f 1/1/1 14/14/1 15/15/1
f 1/1/1 15/15/1 16/16/1
f 1/1/1 16/16/1 17/17/1
f 1/1/1 17/17/1 18/18/1
f 1/1/1 18/18/1 19/19/1
f 1/1/1 19/19/1 20/20/1
f 1/1/1 20/20/1 21/21/1
f 1/1/1 21/21/1 22/22/1
f 1/1/1 22/22/1 23/23/1
f 1/1/1 23/23/1 24/24/1
f 1/1/1 24/24/1 25/25/1
f 1/1/1 25/25/1 2/2/1
f 26/26/2 27/27/2 28/28/2
f 26/26/2 28/28/2 29/29/2
f 26/26/2 29/29/2 30/30/2
f 26/26/2 30/30/2 31/31/2
f 26/26/2 31/31/2 32/32/2
f 26/26/2 32/32/2 33/20/2
f 26/26/2 33/20/2 34/33/2
f 26/26/2 34/33/2 35/34/2
f 26/26/2 35/34/2 36/35/2
f 26/26/2 36/35/2 37/36/2
f 26/26/2 37/36/2 38/37/2
f 26/26/2 38/37/2 39/38/2
f 26/26/2 39/38/2 40/39/2
f 26/26/2 40/39/2 41/40/2
f 26/26/2 41/40/2 42/41/2
f 26/26/2 42/41/2 43/42/2
f 26/26/2 43/42/2 44/43/2
f 26/26/2 44/43/2 45/44/2
f 26/26/2 45/44/2 46/45/2
f 26/26/2 46/45/2 47/46/2
f 26/26/2 47/46/2 48/47/2
f 26/26/2 48/47/2 49/48/2
f 26/26/2 49/48/2 50/49/2
f 26/26/2 50/49/2 27/27/2
