# Blender 4.0.1
# www.blender.org
o big_tree
v 0.998734 -2.698398 -0.363509
v 0.323698 -2.293311 -0.482387
v 0.007873 -2.698398 0.046919
v 0.156849 -2.240673 -0.014789
v 0.156849 -1.010898 -0.014789
v 0.708518 -2.698398 0.337135
v 0.646810 -1.275010 0.188160
v 0.676531 -2.357048 -0.086542
v 0.849758 -2.195645 -0.301801
v 0.788792 -2.885898 -0.032287
v 0.574412 -1.010898 -0.366795
v 0.316909 -1.235898 -0.492668
v 0.575057 -2.357048 -0.331523
v 0.330076 -2.389211 -0.230048
v 0.431550 -2.389211 0.014932
v 0.646810 -2.293311 0.188160
v 0.849758 -1.235898 -0.301802
v 2.467308 -0.930635 -0.636684
v 2.173267 -1.098953 -0.497353
v 0.431550 -1.010898 0.014932
v 1.067307 -1.312393 0.799341
v 0.978531 -1.124535 0.819972
v 0.676531 -1.010898 -0.086542
v 1.458045 -0.835218 2.062220
v 0.018420 -0.975076 -0.961209
v 0.306141 -1.010898 -0.256076
v 1.183227 -1.124535 0.772261
v 0.330076 -1.348398 -0.230048
v -1.304151 -1.360401 0.147142
v 0.380813 -1.656432 -0.107558
v -1.198133 -1.200161 0.228725
v 0.431550 -1.348398 0.014932
v -1.938995 -0.714194 0.535507
v -1.309662 -1.200161 0.020135
v 0.503303 -1.501298 -0.158295
v 1.100722 -1.407914 -1.370723
v 0.396688 -1.304298 -0.202457
v 1.139800 -1.260164 -1.205548
v 0.609919 -1.304298 -0.114134
v 1.444745 -0.739275 -2.091965
v 0.964747 -1.260164 -1.285845
v 1.260623 -3.291717 -0.593820
v 1.373291 -3.291717 -0.282431
v 1.456451 -3.043854 -0.493185
v 0.811403 -3.206566 0.818230
v 0.125292 -3.105364 -1.104966
v 0.298090 -2.698398 -0.653726
v 0.400697 -2.885898 0.089420
v 0.213333 -2.885898 -0.296871
v 0.503303 -2.810898 -0.158295
v 1.700248 -4.238522 -0.554614
v -0.229337 -2.996871 0.309065
v -0.774128 -3.438656 0.299841
v -0.363313 -2.809371 0.234269
v -0.412684 -2.996871 0.105632
v 0.617673 -2.885898 -0.455895
v 0.098878 -3.346958 -1.167576
v 0.423330 -2.523607 0.038184
v 0.341316 -3.211267 0.545963
v 0.627154 -2.728460 -0.099121
v 0.376294 -2.728460 -0.203030
v 0.137493 -3.006414 0.683268
v -0.012881 -4.115743 1.123874
v 0.090456 -3.211267 0.442053
v 4.045457 -0.611959 -1.576801
v 3.306381 0.642596 -1.373157
v 1.938326 -0.268941 -2.960866
v -0.959771 0.726508 -2.863796
v -3.968305 0.639929 1.259385
v -4.599202 -0.387381 1.330076
v -2.137016 -0.571726 2.993848
v 3.449385 0.804910 1.225382
v 1.891676 0.677125 2.451774
v 1.632189 1.913907 -1.693817
v 1.872893 0.806538 -2.568781
v 0.002086 1.993425 -1.835707
v -3.409529 0.806538 -1.543878
v -1.862871 1.901479 0.291390
v 0.197102 0.827536 2.545293
v -0.529621 1.812175 1.793822
v 4.117239 -0.387381 1.507764
v 3.504173 -0.971369 1.272646
v -0.191219 -0.374460 2.973494
v 1.754579 -0.177194 2.953139
v -1.281592 -1.076578 2.419260
v -4.035553 -0.761228 0.875949
v -3.802682 -0.546335 -1.670164
v -1.221228 -0.335691 -3.168677
v 1.480988 -0.787595 -2.198666
v 2.297102 1.854509 -0.752442
v -1.578396 1.833664 -1.359584
v 0.436604 1.856828 1.727918
v 1.402829 1.901481 1.662015
v 2.424364 1.966735 0.495575
v 0.534155 2.561481 -0.165933
v 3.407993 -1.038134 -0.901279
v 1.506879 -0.893596 2.301164
v 0.112644 -0.985087 2.360212
v -3.120999 -0.972029 -1.615121
v 0.534155 -1.068519 -0.165934
v -0.946899 -0.893597 -2.406476
v -1.497473 0.977947 2.638811
vn 0.2928 -0.6099 -0.7364
vn 0.4131 0.0512 -0.9092
vn 0.6102 0.6448 -0.4603
vn 0.9238 0.0162 -0.3826
vn -0.6301 0.1668 -0.7584
vn -0.2790 0.7424 -0.6090
vn -0.7779 -0.6048 -0.1709
vn -0.9062 0.0418 -0.4207
vn -0.6232 -0.5191 -0.5849
vn -0.9690 -0.0036 -0.2470
vn -0.9489 0.0586 0.3100
vn -0.4174 0.9085 -0.0218
vn -0.3235 -0.7018 0.6347
vn -0.4283 0.0535 0.9020
vn -0.9156 0.0032 0.4020
vn -0.4335 0.4684 0.7698
vn 0.4564 0.2304 0.8594
vn 0.2957 0.6440 0.7055
vn 0.6568 -0.6490 0.3839
vn 0.8927 0.0563 0.4471
vn 0.3856 -0.7389 0.5526
vn 0.7502 0.5350 0.3884
vn 0.7209 0.3413 -0.6031
vn -0.0515 -0.9964 -0.0670
vn 0.3739 -0.0031 -0.9274
vn 0.4168 -0.7252 -0.5481
vn 0.1872 -0.9182 0.3491
vn 0.4435 -0.8861 -0.1346
vn -0.7384 0.4350 0.5153
vn 0.2789 0.2564 0.9255
vn -0.2221 -0.9052 -0.3624
vn -0.0768 -0.9785 0.1913
vn -0.1191 -0.9926 0.0220
vn -0.0261 0.4857 -0.8738
vn 0.0792 0.2477 -0.9656
vn -0.7054 0.5670 0.4253
vn 0.1576 0.4569 0.8754
vn 0.4395 0.4011 0.8037
vn -0.7936 0.4614 -0.3966
vn -0.9241 0.3677 -0.1043
vn -0.0179 -0.9968 -0.0775
vn 0.0480 -0.9799 -0.1938
vn 0.7782 0.4697 0.4169
vn 0.6235 0.3371 0.7054
vn 0.3563 0.5412 -0.7617
vn 0.0048 -0.9997 -0.0219
vn -0.6916 -0.2292 -0.6850
vn -0.0998 -0.0980 0.9902
vn 0.3160 -0.9442 -0.0929
vn 0.5407 0.7870 -0.2972
vn 0.2179 -0.4951 0.8410
vn -0.3658 0.6240 -0.6905
vn -0.2683 -0.6960 -0.6660
vn -0.1625 0.9409 0.2973
vn 0.6217 -0.3789 0.6855
vn -0.1687 -0.0048 -0.9857
vn -0.6526 -0.7457 0.1343
vn -0.1418 0.6060 0.7828
vn 0.9706 -0.2400 -0.0195
vn -0.2037 0.8250 0.5272
vn 0.8619 -0.5071 0.0023
vn -0.6361 -0.2409 -0.7331
vn -0.5952 -0.4943 -0.6336
vn -0.1784 -0.8487 0.4978
vn 0.3134 0.5105 -0.8007
vn 0.4804 0.4229 -0.7683
vn -0.0189 -0.1396 -0.9900
vn 0.8029 0.4573 -0.3825
vn -0.0437 0.4455 -0.8942
vn 0.0243 0.4442 -0.8956
vn -0.6916 0.4781 -0.5413
vn -0.4656 0.4836 -0.7412
vn -0.5530 0.7511 0.3606
vn -0.8057 0.5878 -0.0728
vn -0.0754 0.3921 0.9168
vn -0.5411 0.4501 0.7104
vn 0.4029 0.6018 0.6895
vn 0.1765 0.4454 0.8778
vn 0.6583 -0.0864 0.7478
vn 0.0142 0.2805 0.9598
vn 0.5981 0.7198 0.3523
vn 0.6345 0.5842 0.5062
vn 0.5793 0.6539 -0.4866
vn 0.7185 0.6282 -0.2986
vn 0.1655 0.7180 -0.6761
vn -0.2932 0.7970 -0.5281
vn -0.4576 0.8889 0.0215
vn -0.3006 0.8233 0.4814
vn 0.0344 0.6316 0.7745
vn -0.0392 0.6228 0.7814
vn 0.5242 0.7230 0.4499
vn 0.0410 -0.9549 -0.2940
vn 0.2832 -0.9085 -0.3073
vn 0.3728 -0.9175 -0.1383
vn 0.4736 -0.8482 0.2374
vn 0.3060 -0.8883 0.3425
vn -0.3174 -0.8011 0.5074
vn -0.1452 -0.9679 0.2050
vn -0.4034 -0.9150 -0.0077
vn -0.2826 -0.9192 -0.2743
vn 0.0200 0.9998 -0.0043
vn 0.0032 -0.9996 -0.0294
vt 0.186671 0.132073
vt 0.186671 0.232264
vt 0.186671 0.384095
vt 0.393423 0.385708
vt 0.393423 0.233470
vt 0.393423 0.133648
vt 0.186614 0.233529
vt 0.186614 0.383537
vt 0.186425 0.232582
vt 0.186425 0.384243
vt 0.178349 0.233529
vt 0.178349 0.383537
vt 0.392407 0.232285
vt 0.392407 0.386686
vt 0.185731 0.233750
vt 0.185731 0.383659
vt 0.393925 0.334314
vt 0.393925 0.233294
vt 0.393925 0.384423
vt 0.393925 0.255391
vt 0.389003 0.385336
vt 0.389003 0.231753
vt 0.388772 0.231223
vt 0.181880 0.326527
vt 0.181880 0.187235
vt 0.181880 0.260019
vt 0.395254 0.386109
vt 0.395254 0.373435
vt 0.395254 0.231132
vt 0.189029 0.234520
vt 0.189029 0.273766
vt 0.189029 0.380669
vt 0.193154 0.232897
vt 0.193154 0.321982
vt 0.193154 0.384527
vt 0.378739 0.210798
vt 0.378739 0.247680
vt 0.378739 0.337496
vt 0.378739 0.293348
vt 0.386806 0.320153
vt 0.386806 0.211618
vt 0.386806 0.253991
vt 0.386806 0.289951
vt 0.376028 0.216214
vt 0.376028 0.341934
vt 0.376028 0.275419
vt 0.410994 0.232582
vt 0.410994 0.384243
vt 0.421740 0.326527
vt 0.421740 0.187235
vt 0.421740 0.260019
vt 0.416716 0.385336
vt 0.416716 0.231753
vt 0.416484 0.231223
vt 0.417723 0.232897
vt 0.417723 0.321982
vt 0.417723 0.384527
vt 0.004268 0.253295
vt 0.142092 0.129331
vt 0.151841 0.386109
vt 0.167751 0.180111
vt 0.167367 0.366341
vt 0.187843 0.361641
vt 0.177895 0.383309
vt 0.177895 0.132862
vt 0.177895 0.179749
vt 0.385741 0.135900
vt 0.385741 0.156886
vt 0.385741 0.384061
vt 0.174147 0.385552
vt 0.174147 0.328629
vt 0.174147 0.129286
vt 0.390609 0.133316
vt 0.390609 0.319452
vt 0.390609 0.385544
vt 0.360724 0.128952
vt 0.376044 0.324037
vt 0.333272 0.388431
vt 0.206385 0.266999
vt 0.181587 0.383524
vt 0.181587 0.368321
vt 0.181587 0.131471
vt 0.181587 0.278272
vt 0.392467 0.133949
vt 0.392467 0.378273
vt 0.392467 0.384652
vt 0.392467 0.295183
vt 0.137779 0.130398
vt 0.141556 0.135867
vt 0.156771 0.387533
vt 0.185946 0.288720
vt 0.198510 0.253273
vt 0.004215 0.249419
vt 0.168369 0.385607
vt 0.168369 0.327870
vt 0.168369 0.177306
vt 0.390609 0.154633
vt 0.390609 0.325038
vt 0.343606 0.387331
vt 0.391053 0.274807
vt 0.351485 0.130431
vt 0.205607 0.254200
vt 0.430671 0.383309
vt 0.430671 0.179749
vt 0.430671 0.132862
vt 0.425238 0.180885
vt 0.425238 0.337860
vt 0.425238 0.263426
vt 0.424017 0.156886
vt 0.424017 0.384061
vt 0.424017 0.135900
vt 0.428885 0.154633
vt 0.428885 0.325038
vt 0.428885 0.385544
vt 0.421146 0.385607
vt 0.421146 0.327870
vt 0.421146 0.177306
vt 0.055553 0.514846
vt 0.134297 0.826032
vt 0.897158 0.415595
vt 0.768085 0.778596
vt 0.007420 0.424221
vt 0.088694 0.713647
vt 0.989574 0.442409
vt 0.969234 0.735453
vt 0.988573 0.500803
vt 0.896111 0.910182
vt 0.035927 0.563643
vt 0.007229 0.885898
vt 0.984798 0.534839
vt 0.926599 0.914136
vt 0.019011 0.502578
vt 0.034957 0.962981
vt 0.905807 0.484273
vt 0.986174 0.961809
vt 0.008587 0.527303
vt 0.142087 0.844077
vt 0.368429 0.561106
vt 0.325477 0.820449
vt 0.978034 0.501223
vt 0.856375 0.866108
vt 0.986479 0.434577
vt 0.896238 0.801031
vt 0.095000 0.499179
vt 0.244465 0.761755
vt 0.996026 0.427400
vt 0.930994 0.843509
vt 0.010999 0.501887
vt 0.101175 0.897345
vt 0.212492 0.495797
vt 0.365391 0.850317
vt 0.846280 0.448361
vt 0.752610 0.833129
vt 0.061715 0.463395
vt 0.377911 0.883813
vt 0.992912 0.489953
vt 0.913785 0.857425
vt 0.990539 0.439739
vt 0.515942 0.853650
vt 0.086321 0.415455
vt 0.012074 0.903439
vt 0.976581 0.405872
vt 0.573145 0.980092
vt 0.117299 0.447373
vt 0.069561 0.962468
vt 0.916899 0.505053
vt 0.985562 0.872109
vt 0.004563 0.405516
vt 0.317672 0.983571
vt 0.986274 0.465132
vt 0.845380 0.885081
vt 0.497869 0.510792
vt 0.566897 0.871526
vt 0.009462 0.556452
vt 0.288414 0.857971
vt 0.827194 0.491171
vt 0.758083 0.958874
vt 0.175422 0.446574
vt 0.245867 0.936100
vt 0.884295 0.450822
vt 0.686074 0.897898
vt 0.054475 0.504658
vt 0.287532 0.935122
vt 0.919318 0.401352
vt 0.142029 0.473845
vt 0.910144 0.686671
vt 0.068538 0.785922
vt 0.081908 0.490474
vt 0.776131 0.468330
vt 0.006826 0.811235
vt 0.991852 0.736748
vt 0.181142 0.543611
vt 0.889500 0.519707
vt 0.086500 0.841430
vt 0.977979 0.776829
vt 0.316593 0.489202
vt 0.753397 0.516976
vt 0.048594 0.759701
vt 0.658199 0.819584
vt 0.378273 0.879467
vt 0.987878 0.819584
vt 0.455876 0.544749
vt 0.892680 0.516976
vt 0.014190 0.573353
vt 0.993428 0.444703
vt 0.004443 0.837539
vt 0.960624 0.794510
vt 0.013185 0.496873
vt 0.819102 0.605378
vt 0.035489 0.786436
vt 0.988706 0.816684
vt 0.043374 0.483375
vt 0.801851 0.563992
vt 0.006561 0.817785
vt 0.993068 0.757459
vt 0.993581 0.744981
vt 0.852669 0.491018
vt 0.012976 0.725746
vt 0.054535 0.460473
vt 0.520377 0.333072
vt 0.623997 0.951042
vt 0.907596 0.315885
vt 0.314463 0.427947
vt 0.489372 0.993055
vt 0.850336 0.405034
vt 0.990344 0.196910
vt 0.549119 0.898361
vt 0.446920 0.246700
vt 0.993543 0.170619
vt 0.698168 0.927810
vt 0.440279 0.149876
vt 0.970448 0.304939
vt 0.824242 0.991781
vt 0.302560 0.423461
vt 0.993953 0.267009
vt 0.746335 0.926849
vt 0.718527 0.253454
vt 0.443102 0.239899
vt 0.953102 0.364903
vt 0.665456 0.972391
vt 0.440886 0.344847
vt 0.879292 0.230818
vt 0.691995 0.871310
vt 0.480749 0.268042
vt 0.845991 0.173906
vt 0.986453 0.804303
vt 0.209165 0.731811
vt 0.681015 0.134783
vt 0.915840 0.945591
vt 0.221617 0.967736
vt 0.922003 0.139115
vt 0.240129 0.914830
vt 0.948487 0.938733
vt 0.656641 0.155878
vt 0.961389 0.981524
vt 0.524585 0.953750
vt 0.087780 0.925977
vt 0.949679 0.136445
vt 0.996431 0.885166
vt 0.003160 0.991629
vt 0.574655 0.135332
vt 0.990654 0.995420
vt 0.246748 0.925846
vt 0.980522 0.133964
vt 0.148512 0.984527
vt 0.938594 0.896599
vt 0.689748 0.232099
vt 0.168834 0.815832
vt 0.966968 0.846376
vt 0.223111 0.911768
vt 0.022746 0.441339
vt 0.754009 0.866108
vt 0.632351 0.501223
s 1
f 56/1/1 13/2/2 1/3/3
f 9/3/4 1/3/3 13/2/2
f 2/4/5 13/5/2 47/4/6
f 56/6/1 47/4/6 13/5/2
f 49/1/7 14/2/8 47/3/6
f 2/3/5 47/3/6 14/2/8
f 2/3/5 14/7/8 12/8/9
f 26/7/10 12/8/9 14/7/8
f 4/4/11 14/5/8 3/4/12
f 49/6/7 3/4/12 14/5/8
f 48/1/13 15/2/14 3/3/12
f 4/3/11 3/3/12 15/2/14
f 4/3/11 15/7/14 5/8/15
f 20/7/16 5/8/15 15/7/14
f 16/4/17 15/5/14 6/4/18
f 48/6/13 6/4/18 15/5/14
f 10/1/19 8/2/20 6/3/18
f 16/3/17 6/3/18 8/2/20
f 16/3/17 8/7/20 7/8/21
f 23/7/22 7/8/21 8/7/20
f 23/7/22 27/9/23 7/8/21
f 21/10/24 7/8/21 27/9/23
f 9/4/4 8/5/20 1/4/3
f 10/6/19 1/4/3 8/5/20
f 11/11/25 17/12/26 13/11/2
f 9/12/4 13/11/2 17/12/26
f 11/13/25 13/13/2 12/14/9
f 2/14/5 12/14/9 13/13/2
f 26/13/10 14/13/8 5/14/15
f 4/14/11 5/14/15 14/13/8
f 20/13/16 15/13/14 7/14/21
f 16/14/17 7/14/21 15/13/14
f 23/13/22 8/13/20 17/14/26
f 9/14/4 17/14/26 8/13/20
f 11/15/25 19/16/27 17/16/26
f 11/15/25 18/15/28 19/16/27
f 19/17/27 23/18/22 17/19/26
f 19/17/27 18/20/28 23/18/22
f 7/21/21 21/21/24 20/22/16
f 22/22/29 20/22/16 21/21/24
f 21/21/24 24/23/30 22/22/29
f 20/24/16 22/24/29 23/25/22
f 27/25/23 23/25/22 22/24/29
f 22/24/29 24/26/30 27/25/23
f 12/27/9 25/28/31 11/29/25
f 26/30/10 25/31/31 12/32/9
f 27/33/23 24/34/30 21/35/24
f 30/36/32 29/37/33 28/38/34
f 34/38/35 28/38/34 29/37/33
f 29/37/33 33/39/36 34/38/35
f 32/40/37 31/40/38 30/41/32
f 29/42/33 30/41/32 31/40/38
f 31/40/38 33/43/36 29/42/33
f 28/44/34 34/44/35 32/45/37
f 31/45/38 32/45/37 34/44/35
f 34/44/35 33/46/36 31/45/38
f 37/47/39 41/47/40 35/48/41
f 36/48/42 35/48/41 41/47/40
f 39/49/43 38/49/44 37/50/39
f 41/50/40 37/50/39 38/49/44
f 38/49/44 40/51/45 41/50/40
f 35/52/41 36/52/42 39/53/43
f 38/53/44 39/53/43 36/52/42
f 36/52/42 40/54/45 38/53/44
f 41/55/40 40/56/45 36/57/42
f 50/58/46 56/59/1 10/60/19
f 56/59/1 42/61/47 10/60/19
f 43/62/48 10/60/19 42/61/47
f 42/61/47 51/63/49 43/62/48
f 1/64/3 44/64/50 56/65/1
f 42/66/47 56/65/1 44/64/50
f 10/67/19 43/68/48 1/69/3
f 44/69/50 1/69/3 43/68/48
f 6/70/18 45/71/51 10/72/19
f 48/73/13 45/74/51 6/75/18
f 10/76/19 45/77/51 48/78/13
f 48/78/13 50/79/46 10/76/19
f 47/80/6 46/81/52 49/82/7
f 46/81/52 57/83/53 49/82/7
f 56/84/1 46/85/52 47/86/6
f 56/84/1 57/87/53 46/85/52
f 3/64/12 54/64/54 48/65/13
f 52/66/55 48/65/13 54/64/54
f 49/67/7 55/68/56 3/69/12
f 54/69/54 3/69/12 55/68/56
f 48/88/13 52/89/55 49/90/7
f 55/91/56 49/90/7 52/89/55
f 52/89/55 53/92/57 55/91/56
f 49/90/7 50/93/46 48/88/13
f 44/94/50 51/95/49 42/96/47
f 43/97/48 51/98/49 44/75/50
f 54/94/54 53/95/57 52/96/55
f 55/97/56 53/98/57 54/75/54
f 49/99/7 57/100/53 56/101/1
f 56/101/1 50/102/46 49/99/7
f 62/103/58 59/104/59 58/103/60
f 60/105/61 58/103/60 59/104/59
f 64/106/62 61/106/63 59/107/59
f 60/107/61 59/107/59 61/106/63
f 59/107/59 63/108/64 64/106/62
f 64/109/62 62/110/58 61/111/63
f 58/110/60 61/111/63 62/110/58
f 64/112/62 63/113/64 62/114/58
f 62/115/58 63/116/64 59/117/59
f 67/118/65 75/119/66 65/120/67
f 66/121/68 65/120/67 75/119/66
f 88/122/69 68/123/70 67/124/65
f 75/125/66 67/124/65 68/123/70
f 87/126/71 77/127/72 88/128/69
f 68/129/70 88/128/69 77/127/72
f 70/130/73 69/131/74 87/132/71
f 77/133/72 87/132/71 69/131/74
f 71/134/75 102/135/76 70/136/73
f 69/137/74 70/136/73 102/135/76
f 84/138/77 73/139/78 83/140/79
f 79/141/80 83/140/79 73/139/78
f 81/142/81 72/143/82 84/144/77
f 73/145/78 84/144/77 72/143/82
f 65/146/67 66/147/68 81/148/81
f 72/149/82 81/148/81 66/147/68
f 75/150/66 74/151/83 66/152/68
f 90/153/84 66/152/68 74/151/83
f 68/154/70 76/155/85 75/156/66
f 74/157/83 75/156/66 76/155/85
f 77/158/72 91/159/86 68/160/70
f 76/161/85 68/160/70 91/159/86
f 69/162/74 78/163/87 77/164/72
f 91/165/86 77/164/72 78/163/87
f 102/166/76 80/167/88 69/168/74
f 78/169/87 69/168/74 80/167/88
f 73/170/78 93/171/89 79/172/80
f 92/173/90 79/172/80 93/171/89
f 79/172/80 92/173/90 102/174/76
f 80/175/88 102/174/76 92/173/90
f 72/176/82 94/177/91 73/178/78
f 93/179/89 73/178/78 94/177/91
f 66/180/68 90/181/84 72/182/82
f 94/183/91 72/182/82 90/181/84
f 96/184/92 89/185/93 65/186/67
f 67/187/65 65/186/67 89/185/93
f 82/188/94 96/189/92 81/190/81
f 65/191/67 81/190/81 96/189/92
f 97/192/95 82/193/94 84/194/77
f 81/195/81 84/194/77 82/193/94
f 85/196/96 98/197/97 71/198/75
f 83/199/79 71/198/75 98/197/97
f 84/200/77 83/201/79 97/202/95
f 83/201/79 98/203/97 97/202/95
f 86/204/98 85/205/96 70/206/73
f 71/207/75 70/206/73 85/205/96
f 99/208/99 86/209/98 87/210/71
f 70/211/73 87/210/71 86/209/98
f 101/212/100 99/213/99 88/214/69
f 87/215/71 88/214/69 99/213/99
f 67/216/65 89/217/93 88/218/69
f 101/219/100 88/218/69 89/217/93
f 74/220/83 95/221/101 90/222/84
f 76/223/85 95/224/101 74/225/83
f 91/226/86 95/227/101 76/228/85
f 78/229/87 95/230/101 91/231/86
f 80/232/88 95/233/101 78/234/87
f 93/235/89 95/236/101 92/237/90
f 92/237/90 95/236/101 80/238/88
f 94/239/91 95/240/101 93/241/89
f 90/242/84 95/243/101 94/244/91
f 100/245/102 89/246/93 96/247/92
f 100/248/102 96/249/92 82/250/94
f 100/251/102 82/252/94 97/253/95
f 100/254/102 97/255/95 98/256/97
f 100/254/102 98/256/97 85/257/96
f 100/258/102 85/259/96 86/260/98
f 100/261/102 86/262/98 99/263/99
f 100/264/102 99/265/99 101/266/100
f 100/267/102 101/268/100 89/269/93
f 102/270/76 71/271/75 79/272/80
f 83/273/79 79/272/80 71/271/75
