# Blender 4.0.1
# www.blender.org
o map_tutorial_floor
v -10.161838 14.212269 17.600817
v 10.492555 14.212272 18.173626
v 17.600809 14.212270 10.161835
v -10.492555 14.212272 18.173626
v -0.000002 14.212274 20.985092
v 18.173624 14.212274 10.492547
v -17.600821 14.212270 10.161834
v -0.000002 14.212271 20.323666
v 10.161838 14.212269 17.600817
v -10.161838 14.212268 -17.600824
v 10.492555 14.212271 -18.173634
v 17.600809 14.212266 -10.161837
v -10.492555 14.212271 -18.173634
v -0.000002 14.212269 -20.985100
v 18.173624 14.212270 -10.492550
v -17.600821 14.212266 -10.161836
v -0.000002 14.212266 -20.323673
v 10.161838 14.212268 -17.600824
v -18.173632 14.212272 10.492552
v -18.173630 14.212268 -10.492558
v -20.985096 14.212270 -0.000005
v -20.323669 14.212267 -0.000005
v 17.600821 14.212268 -10.161839
v 20.985096 14.212273 -0.000003
v 20.323669 14.212270 -0.000003
v -13.461829 5.449203 7.770968
v -13.442604 5.449203 -7.765293
v -15.517260 5.449203 -0.002711
v -14.712694 5.449203 8.492819
v -14.023314 5.449203 8.094992
v -16.958815 5.449203 -0.002041
v -16.164343 5.449203 -0.002411
v -14.691686 5.449203 -8.484774
v -14.003288 5.449203 -8.088249
v -16.517548 5.449201 -9.536484
v -17.106354 5.449205 9.874148
v -16.541166 5.449205 9.547991
v -19.717367 5.449203 -0.000761
v -19.066023 5.449203 -0.001063
v -17.081928 5.449201 -9.861572
v 13.467422 5.449205 7.770970
v 13.448196 5.449203 -7.765289
v 15.522850 5.449205 -0.002710
v 14.718285 5.449205 8.492821
v 14.028905 5.449205 8.094994
v 16.964405 5.449205 -0.002040
v 16.169933 5.449205 -0.002409
v 14.697276 5.449203 -8.484771
v 14.008880 5.449203 -8.088248
v 16.523140 5.449203 -9.536482
v 17.111944 5.449207 9.874150
v 16.546757 5.449207 9.547992
v 19.722960 5.449205 -0.000760
v 19.071613 5.449205 -0.001062
v 17.087519 5.449203 -9.861569
v 14.008417 5.449204 8.088547
v 7.773763 5.449205 13.464625
v 13.448099 5.449204 7.764437
v -7.762498 5.449205 13.445399
v 0.000082 5.449205 15.520055
v -13.451055 5.449204 7.766233
v 8.495612 5.449205 14.715489
v 14.696365 5.449204 8.486484
v 8.097785 5.449205 14.026110
v 0.000751 5.449205 16.961609
v 0.000382 5.449205 16.167137
v -8.481979 5.449205 14.694481
v -14.010902 5.449204 8.090420
v -8.085457 5.449205 14.006083
v -14.698273 5.449204 8.488449
v -9.533690 5.449205 16.520344
v -16.521414 5.449206 9.544156
v 9.876941 5.449205 17.109148
v 17.085049 5.449206 9.868197
v 9.550784 5.449205 16.543961
v 16.521034 5.449206 9.541949
v 0.002031 5.449205 19.720163
v 0.001729 5.449205 19.068817
v -17.084951 5.449206 9.870479
v -9.858778 5.449205 17.084723
v 14.008417 5.449203 -8.088547
v 7.773763 5.449203 -13.464625
v 13.448099 5.449203 -7.764439
v -7.762498 5.449203 -13.445399
v 0.000082 5.449203 -15.520055
v -13.451055 5.449203 -7.766235
v 8.495612 5.449203 -14.715489
v 14.696365 5.449203 -8.486484
v 8.097785 5.449203 -14.026110
v 0.000751 5.449202 -16.961609
v 0.000382 5.449202 -16.167137
v -8.481979 5.449203 -14.694481
v -14.010902 5.449203 -8.090420
v -8.085457 5.449203 -14.006083
v -14.698273 5.449203 -8.488449
v -9.533690 5.449202 -16.520344
v -16.521414 5.449203 -9.544156
v 9.876941 5.449202 -17.109148
v 17.085049 5.449203 -9.868197
v 9.550784 5.449202 -16.543961
v 16.521034 5.449203 -9.541949
v 0.002031 5.449202 -19.720163
v 0.001729 5.449202 -19.068817
v -17.084951 5.449203 -9.870479
v -9.858778 5.449202 -17.084723
v 8.847529 5.271401 -5.108130
v 5.108127 5.271405 -8.847533
v 0.000000 5.271401 -10.216263
v -5.108131 5.271401 -8.847533
v -8.847534 5.271405 -5.108130
v -10.216261 5.271405 -0.000001
v -8.847536 5.271404 5.108130
v -5.108132 5.271402 8.847533
v -0.000002 5.271403 -0.000000
v -0.000001 5.271404 10.216257
v 5.108127 5.271402 8.847532
v 8.847529 5.271402 5.108130
v 10.216261 5.271403 -0.000000
v -7.657041 6.155687 -13.262375
v -5.108131 6.155687 -8.847533
v 13.304107 6.155687 -7.681133
v 5.108127 6.155687 -8.847533
v 10.216261 6.155689 -0.000001
v -7.672592 6.155690 13.289316
v -13.288719 6.155687 -7.672249
v -8.847534 6.155687 -5.108130
v -15.360634 6.155689 -0.000001
v -0.000002 6.155690 15.339920
v 0.000000 6.155687 -15.377129
v 7.678277 6.155687 -13.299159
v -13.295204 6.155688 7.675988
v 7.683563 6.155690 13.308319
v 13.292117 6.155688 7.674211
v 15.346377 6.155689 -0.000000
v 8.847529 6.155687 -5.108130
v 0.000000 6.155687 -10.216263
v -10.216261 6.155689 -0.000001
v -8.847536 6.155688 5.108130
v -5.108132 6.155688 8.847532
v -0.000001 6.155690 10.216256
v 5.108127 6.155688 8.847532
v 8.847529 6.155688 5.108130
v -0.741339 5.747552 -1.284037
v -0.370669 5.747552 -0.642018
v -0.741339 5.747552 1.284037
v -0.741339 5.747552 -0.000000
v -0.370669 5.747552 0.642019
v 0.370670 5.747552 0.642019
v 0.741339 5.747552 -0.000000
v 0.370670 5.747552 -0.642018
v 0.000000 5.747552 -0.000000
v -1.482678 5.747552 -0.000000
v 0.741339 5.747552 1.284037
v 1.482678 5.747552 -0.000000
v 0.741339 5.747552 -1.284037
vn -0.0000 1.0000 -0.0000
vt 0.759953 1.852171
vt 0.786240 1.859119
vt 0.759952 1.854855
vt 0.784896 1.861449
vt 0.733703 1.859184
vt 0.735043 1.861510
vt 0.766540 1.649821
vt 0.800237 1.658728
vt 0.766539 1.652972
vt 0.798659 1.661462
vt 0.732891 1.658811
vt 0.734464 1.661541
vt 0.766535 1.473794
vt 0.794469 1.481177
vt 0.766531 1.482115
vt 0.790301 1.488398
vt 0.738641 1.481246
vt 0.742795 1.488456
vt 0.577343 1.850772
vt 0.600737 1.857185
vt 0.577341 1.853501
vt 0.599419 1.859553
vt 0.553981 1.857245
vt 0.555295 1.859610
vt 0.805429 1.878388
vt 0.803103 1.879733
vt 0.714467 1.878382
vt 0.716790 1.879727
vt 0.824834 1.683429
vt 0.822105 1.685007
vt 0.708233 1.683421
vt 0.710960 1.685000
vt 0.814859 1.501654
vt 0.807652 1.505821
vt 0.718200 1.501647
vt 0.725401 1.505816
vt 0.617814 1.874972
vt 0.615535 1.876339
vt 0.536862 1.874966
vt 0.539139 1.876333
vt 0.256720 1.468809
vt 0.264530 1.468809
vt 0.272340 1.468809
vt 0.280151 1.468809
vt 0.287961 1.468809
vt 0.000000 1.992712
vt 0.000000 0.992817
vt 0.300000 1.757209
vt 0.300000 1.257262
vt 0.000000 2.004156
vt 0.000000 0.802830
vt 0.300000 1.789521
vt 0.300000 1.188858
vt 0.000000 2.177576
vt 0.000000 0.976025
vt 0.300000 1.795477
vt 0.300000 1.194702
vt 0.000000 1.993111
vt 0.000000 0.993111
vt 0.300000 1.743111
vt 0.300000 1.243111
vt 0.000000 2.010152
vt 0.000000 0.808394
vt 0.300000 1.772182
vt 0.300000 1.171303
vt 0.000000 2.193120
vt 0.000000 0.991271
vt 0.300000 1.824339
vt 0.300000 1.223415
vt 0.165972 1.586040
vt 0.155760 1.586040
vt 0.160866 1.500000
vt 0.150653 1.500000
vt 0.155760 1.413960
vt 0.165972 1.413960
vt 0.171079 1.500000
vt 8.673115 6.218750
vt 5.218750 9.673115
vt 0.499999 1.500000
vt 0.500001 10.937501
vt -4.218750 9.673115
vt -7.673113 6.218751
vt -8.937500 1.500001
vt -7.673113 -3.218750
vt -4.218750 -6.673115
vt 0.499999 -7.937501
vt 5.218750 -6.673115
vt 8.673115 -3.218750
vt 9.937500 1.500000
vt -0.001421 0.967668
vt -0.008654 1.889238
vt -0.593476 1.086073
vt -0.593476 1.815454
vt -0.003781 1.110678
vt -0.001421 2.034759
vt -0.593476 1.157974
vt -0.593476 1.888768
vt -0.003152 1.063683
vt -0.003808 1.936216
vt -0.593476 1.154809
vt -0.593476 1.845191
vt -0.004949 0.965779
vt -0.003126 1.888618
vt -0.593476 1.123092
vt -0.593476 1.853580
vt -0.004714 1.124626
vt -0.004949 2.000000
vt -0.593476 1.307060
vt -0.593476 2.000000
vt -0.002569 1.206626
vt -0.004714 1.824432
vt -0.593476 1.511827
vt -0.005689 0.971319
vt -0.002569 1.879554
vt -0.593476 1.189940
vt -0.593476 1.909265
vt -0.005086 1.112402
vt -0.005689 2.024422
vt -0.593476 1.225750
vt -0.593476 1.947856
vt -0.004306 1.063783
vt -0.005086 1.935923
vt -0.593476 1.153436
vt -0.593476 1.843812
vt -0.003313 0.965873
vt -0.004306 1.889419
vt -0.593476 1.108194
vt -0.593476 1.838972
vt -0.005165 1.110482
vt -0.003313 2.033799
vt -0.593476 1.165990
vt -0.593476 1.896657
vt -0.008654 1.066709
vt -0.005165 1.936603
vt -0.593476 1.176294
vt -0.593476 1.865522
s 1
f 32/1/1 30/2/1 28/3/1
f 30/2/1 26/4/1 28/3/1
f 34/5/1 32/1/1 27/6/1
f 32/1/1 28/3/1 27/6/1
f 31/7/1 29/8/1 32/9/1
f 29/8/1 30/10/1 32/9/1
f 33/11/1 31/7/1 34/12/1
f 31/7/1 32/9/1 34/12/1
f 39/13/1 37/14/1 31/15/1
f 37/14/1 29/16/1 31/15/1
f 35/17/1 39/13/1 33/18/1
f 39/13/1 31/15/1 33/18/1
f 38/19/1 36/20/1 39/21/1
f 36/20/1 37/22/1 39/21/1
f 40/23/1 38/19/1 35/24/1
f 38/19/1 39/21/1 35/24/1
f 47/1/1 43/3/1 45/2/1
f 45/2/1 43/3/1 41/4/1
f 49/5/1 42/6/1 47/1/1
f 47/1/1 42/6/1 43/3/1
f 46/7/1 47/9/1 44/8/1
f 44/8/1 47/9/1 45/10/1
f 48/11/1 49/12/1 46/7/1
f 46/7/1 49/12/1 47/9/1
f 54/13/1 46/15/1 52/14/1
f 52/14/1 46/15/1 44/16/1
f 50/17/1 48/18/1 54/13/1
f 54/13/1 48/18/1 46/15/1
f 53/19/1 54/21/1 51/20/1
f 51/20/1 54/21/1 52/22/1
f 55/23/1 50/24/1 53/19/1
f 53/19/1 50/24/1 54/21/1
f 64/2/1 56/25/1 57/4/1
f 56/25/1 58/26/1 57/4/1
f 66/1/1 64/2/1 60/3/1
f 64/2/1 57/4/1 60/3/1
f 69/5/1 66/1/1 59/6/1
f 66/1/1 60/3/1 59/6/1
f 68/27/1 69/5/1 61/28/1
f 69/5/1 59/6/1 61/28/1
f 62/8/1 63/29/1 64/10/1
f 63/29/1 56/30/1 64/10/1
f 65/7/1 62/8/1 66/9/1
f 62/8/1 64/10/1 66/9/1
f 67/11/1 65/7/1 69/12/1
f 65/7/1 66/9/1 69/12/1
f 70/31/1 67/11/1 68/32/1
f 67/11/1 69/12/1 68/32/1
f 75/14/1 76/33/1 62/16/1
f 76/33/1 63/34/1 62/16/1
f 78/13/1 75/14/1 65/15/1
f 75/14/1 62/16/1 65/15/1
f 71/17/1 78/13/1 67/18/1
f 78/13/1 65/15/1 67/18/1
f 72/35/1 71/17/1 70/36/1
f 71/17/1 67/18/1 70/36/1
f 73/20/1 74/37/1 75/22/1
f 74/37/1 76/38/1 75/22/1
f 77/19/1 73/20/1 78/21/1
f 73/20/1 75/22/1 78/21/1
f 80/23/1 77/19/1 71/24/1
f 77/19/1 78/21/1 71/24/1
f 79/39/1 80/23/1 72/40/1
f 80/23/1 71/24/1 72/40/1
f 89/2/1 82/4/1 81/25/1
f 81/25/1 82/4/1 83/26/1
f 91/1/1 85/3/1 89/2/1
f 89/2/1 85/3/1 82/4/1
f 94/5/1 84/6/1 91/1/1
f 91/1/1 84/6/1 85/3/1
f 93/27/1 86/28/1 94/5/1
f 94/5/1 86/28/1 84/6/1
f 87/8/1 89/10/1 88/29/1
f 88/29/1 89/10/1 81/30/1
f 90/7/1 91/9/1 87/8/1
f 87/8/1 91/9/1 89/10/1
f 92/11/1 94/12/1 90/7/1
f 90/7/1 94/12/1 91/9/1
f 95/31/1 93/32/1 92/11/1
f 92/11/1 93/32/1 94/12/1
f 100/14/1 87/16/1 101/33/1
f 101/33/1 87/16/1 88/34/1
f 103/13/1 90/15/1 100/14/1
f 100/14/1 90/15/1 87/16/1
f 96/17/1 92/18/1 103/13/1
f 103/13/1 92/18/1 90/15/1
f 97/35/1 95/36/1 96/17/1
f 96/17/1 95/36/1 92/18/1
f 98/20/1 100/22/1 99/37/1
f 99/37/1 100/22/1 101/38/1
f 102/19/1 103/21/1 98/20/1
f 98/20/1 103/21/1 100/22/1
f 105/23/1 96/24/1 102/19/1
f 102/19/1 96/24/1 103/21/1
f 104/39/1 97/40/1 105/23/1
f 105/23/1 97/40/1 96/24/1
f 19/41/1 4/42/1 7/41/1
f 4/42/1 1/42/1 7/41/1
f 4/42/1 5/43/1 1/42/1
f 5/43/1 8/43/1 1/42/1
f 5/43/1 2/44/1 8/43/1
f 2/44/1 9/44/1 8/43/1
f 2/44/1 6/45/1 9/44/1
f 6/45/1 3/45/1 9/44/1
f 20/41/1 16/41/1 13/42/1
f 13/42/1 16/41/1 10/42/1
f 13/42/1 10/42/1 14/43/1
f 14/43/1 10/42/1 17/43/1
f 14/43/1 17/43/1 11/44/1
f 11/44/1 17/43/1 18/44/1
f 11/44/1 18/44/1 15/45/1
f 15/45/1 18/44/1 12/45/1
f 20/42/1 21/43/1 16/42/1
f 21/43/1 22/43/1 16/42/1
f 21/43/1 19/44/1 22/43/1
f 19/44/1 7/44/1 22/43/1
f 15/42/1 23/42/1 24/43/1
f 24/43/1 23/42/1 25/43/1
f 24/43/1 25/43/1 6/44/1
f 6/44/1 25/43/1 3/44/1
f 155/46/1 143/47/1 150/48/1
f 143/47/1 144/49/1 150/48/1
f 143/50/1 152/51/1 144/52/1
f 152/51/1 146/53/1 144/52/1
f 152/54/1 145/55/1 146/56/1
f 145/55/1 147/57/1 146/56/1
f 145/58/1 153/59/1 147/60/1
f 153/59/1 148/61/1 147/60/1
f 153/62/1 154/63/1 148/64/1
f 154/63/1 149/65/1 148/64/1
f 154/66/1 155/67/1 149/68/1
f 155/67/1 150/69/1 149/68/1
f 150/70/1 144/71/1 151/72/1
f 144/71/1 146/73/1 151/72/1
f 151/72/1 146/73/1 147/74/1
f 147/74/1 148/75/1 151/72/1
f 148/75/1 149/76/1 151/72/1
f 151/72/1 149/76/1 150/70/1
f 106/77/1 107/78/1 114/79/1
f 107/78/1 108/80/1 114/79/1
f 114/79/1 108/80/1 109/81/1
f 109/81/1 110/82/1 114/79/1
f 110/82/1 111/83/1 114/79/1
f 114/79/1 111/83/1 112/84/1
f 112/84/1 113/85/1 114/79/1
f 113/85/1 115/86/1 114/79/1
f 114/79/1 115/86/1 116/87/1
f 116/87/1 117/88/1 114/79/1
f 117/88/1 118/89/1 114/79/1
f 114/79/1 118/89/1 106/77/1
f 129/90/1 119/91/1 136/92/1
f 119/91/1 120/93/1 136/92/1
f 130/94/1 129/95/1 122/96/1
f 129/95/1 136/97/1 122/96/1
f 121/98/1 130/99/1 135/100/1
f 130/99/1 122/101/1 135/100/1
f 134/102/1 121/103/1 123/104/1
f 121/103/1 135/105/1 123/104/1
f 133/106/1 134/107/1 142/108/1
f 134/107/1 123/109/1 142/108/1
f 132/110/1 133/111/1 141/112/1
f 133/111/1 142/109/1 141/112/1
f 128/113/1 132/114/1 140/115/1
f 132/114/1 141/116/1 140/115/1
f 124/117/1 128/118/1 139/119/1
f 128/118/1 140/120/1 139/119/1
f 131/121/1 124/122/1 138/123/1
f 124/122/1 139/124/1 138/123/1
f 127/125/1 131/126/1 137/127/1
f 131/126/1 138/128/1 137/127/1
f 125/129/1 127/130/1 126/131/1
f 127/130/1 137/132/1 126/131/1
f 119/133/1 125/134/1 120/135/1
f 125/134/1 126/136/1 120/135/1
