<svg height="16" viewBox="0 0 16 16" width="16" xmlns="http://www.w3.org/2000/svg"><g stroke="#a2d2ff"><g fill="none" stroke="#fff" stroke-linecap="square"><rect height="8" ry="1.5" width="8" x="6.5" y="1.5"/><path d="m2 11.5h12.5"/><path d="m1.5 1.5v13"/><path d="m6 5.5h-4"/><path d="m6.5 12v2.5h8"/></g><path d="m10.5 3c-1.380708 0-2.5 1.1192923-2.5 2.5s1.119292 2.5 2.5 2.5c1.380709 0 2.5-1.1192923 2.5-2.5s-1.119291-2.5-2.5-2.5zm1 1a.5.5 0 0 1 .5.5.5.5 0 0 1 -.5.5.5.5 0 0 1 -.5-.5.5.5 0 0 1 .5-.5zm-1.779297.2207031a1.5 1.5 0 0 0 -.220703.7792969 1.5 1.5 0 0 0 1.5 1.5 1.5 1.5 0 0 0 .779297-.2207031 1.5 1.5 0 0 1 -1.279297.7207031 1.5 1.5 0 0 1 -1.5-1.5 1.5 1.5 0 0 1 .720703-1.2792969z" fill="#fff" fill-rule="evenodd" stroke="none"/></g></svg>