<svg height="16" viewBox="0 0 16 16" width="16" xmlns="http://www.w3.org/2000/svg"><g stroke="#a2d2ff"><g fill="none" stroke="#fff" stroke-linecap="square"><rect height="8" ry="1.5" width="8" x="6.5" y="1.5"/><path d="m2 11.5h12.5"/><path d="m1.5 1.5v13"/><path d="m6 5.5h-4"/><path d="m6.5 12v2.5h8"/></g><path d="m10.5 3c-.828426 0-1.5.6715737-1.5 1.5s.649589 1.6966884 1.5 3.5c1.026286-1.999998 1.5-2.6715737 1.5-3.5s-.671574-1.5-1.5-1.5zm0 1a.5.5 0 0 1 .5.5.5.5 0 0 1 -.5.5.5.5 0 0 1 -.5-.5.5.5 0 0 1 .5-.5z" fill="#fff" fill-rule="evenodd" stroke="none"/></g></svg>